<?xml version="1.0" standalone="no"?><!DOCTYPE svg PUBLIC "-//W3C//DTD SVG 1.1//EN" "http://www.w3.org/Graphics/SVG/1.1/DTD/svg11.dtd"><svg xmlns="http://www.w3.org/2000/svg" xmlns:xlink="http://www.w3.org/1999/xlink"><symbol fill-rule="evenodd" clip-rule="evenodd" stroke-linejoin="round" stroke-miterlimit="1.414" viewBox="0 0 216 146" id="arrow-left"><path d="M76.82 73c0-.857.43-1.82 1.073-2.464l49.928-49.93c.644-.642 1.61-1.07 2.466-1.07.857 0 1.82.428 2.464 1.07l5.357 5.358c.643.643 1.072 1.607 1.072 2.465 0 .856-.43 1.82-1.073 2.463L96 73l42.107 42.107c.643.643 1.072 1.607 1.072 2.464 0 .966-.43 1.823-1.073 2.466l-5.357 5.357c-.643.643-1.607 1.07-2.464 1.07s-1.822-.427-2.465-1.07l-49.927-49.93c-.643-.642-1.072-1.606-1.072-2.463z"/></symbol><symbol fill-rule="evenodd" clip-rule="evenodd" stroke-linejoin="round" stroke-miterlimit="1.414" viewBox="0 0 216 146" id="arrow-right"><path d="M139.18 73c0-.857-.43-1.82-1.073-2.464L88.18 20.606c-.644-.642-1.61-1.07-2.466-1.07-.857 0-1.82.428-2.464 1.07l-5.357 5.358c-.643.643-1.072 1.607-1.072 2.465 0 .856.43 1.82 1.073 2.463L120 73l-42.107 42.107c-.643.643-1.072 1.607-1.072 2.464 0 .966.43 1.823 1.073 2.466l5.357 5.357c.643.643 1.607 1.07 2.464 1.07s1.822-.427 2.465-1.07l49.927-49.93c.643-.642 1.072-1.606 1.072-2.463z"/></symbol><symbol viewBox="0 0 100 100" id="broadcast"><path d="M22.382 27.693l-.975-2.385 10.68 3.324-16.772-8.123.972 2.38-10.683-3.32zM22.546 43.907L5.406 51.23l10.827-2.812-1.085 2.333 17.138-7.32-10.828 2.816zM77.908 27.693l16.778-8.122-10.684 3.32.973-2.38-16.772 8.122 10.68-3.324zM94.884 51.23l-17.14-7.323 1.087 2.34-10.826-2.817 17.138 7.32-1.086-2.332zM57.124 45.16c2.13-1.92 3.495-4.67 3.495-7.754 0-5.778-4.7-10.476-10.477-10.476s-10.476 4.698-10.476 10.476c0 3.085 1.367 5.836 3.497 7.753L33.03 80.43h6.063l2.06-7.232h17.984l2.06 7.23h6.06L57.125 45.16zm-6.98-13.538c3.196 0 5.785 2.586 5.785 5.784 0 3.195-2.59 5.784-5.786 5.784-3.194 0-5.785-2.59-5.785-5.784 0-3.198 2.59-5.784 5.784-5.784zm0 16.258c.593 0 1.166-.08 1.733-.177l2.676 9.398h-8.817l2.676-9.395c.566.095 1.14.175 1.732.175zm-7.776 21.048l2.152-7.556h11.248l2.152 7.556H42.368z"/></symbol><symbol viewBox="0 0 216 146" id="btn-fb"><path fill="#fff" d="M118.348 49.86V38.293c0-1.737.08-3.082.243-4.032.163-.952.53-1.888 1.102-2.813.57-.923 1.494-1.56 2.77-1.914 1.277-.354 2.977-.53 5.096-.53h11.567V5.866H120.63c-10.702 0-18.387 2.54-23.058 7.617-4.67 5.08-7.006 12.56-7.006 22.446v13.93H76.714V73h13.85v67.135h27.784V73h18.494l2.444-23.14h-20.938z"/></symbol><symbol viewBox="0 0 216 146" id="btn-gplus"><g fill="#fff"><path d="M118.225 91.536c-1.438-1.93-3.026-3.722-4.766-5.377-1.74-1.657-3.478-3.165-5.215-4.522-1.738-1.36-3.327-2.662-4.766-3.912-1.44-1.248-2.608-2.554-3.504-3.91-.896-1.358-1.344-2.744-1.344-4.155 0-1.955.625-3.788 1.874-5.5s2.77-3.366 4.562-4.97 3.584-3.353 5.377-5.254c1.79-1.902 3.312-4.413 4.562-7.537 1.248-3.124 1.873-6.695 1.873-10.714 0-4.78-1.06-9.37-3.178-13.77s-5.104-7.82-8.962-10.265h10.998l10.998-6.436h-35.6c-5.052 0-10.13.544-15.235 1.632-7.548 1.684-13.903 5.527-19.063 11.528-5.16 6.002-7.74 12.805-7.74 20.41 0 8.038 2.893 14.72 8.677 20.04 5.784 5.323 12.723 7.985 20.816 7.985 1.63 0 3.53-.137 5.703-.408-.11.434-.298 1.018-.57 1.75l-.652 1.753c-.162.434-.298.963-.406 1.588-.11.625-.163 1.264-.163 1.915 0 3.585 1.738 7.632 5.215 12.14-4.128.11-8.2.476-12.22 1.1-4.02.626-8.23 1.605-12.63 2.936-4.398 1.33-8.336 3.26-11.812 5.784-3.476 2.525-6.083 5.525-7.82 9.003-2.01 4.022-3.016 7.688-3.016 11 0 3.64.815 6.938 2.444 9.898 1.63 2.96 3.72 5.377 6.274 7.25 2.553 1.875 5.5 3.45 8.84 4.728 3.34 1.274 6.653 2.187 9.94 2.73s6.53.812 9.735.812c14.555 0 25.962-3.558 34.217-10.673 7.604-6.627 11.406-14.285 11.406-22.977 0-3.097-.448-5.988-1.345-8.677-.896-2.69-2.063-4.996-3.503-6.924zM86.817 61.922c-2.77 0-5.404-.706-7.903-2.12-2.5-1.412-4.617-3.245-6.355-5.5-1.738-2.253-3.26-4.792-4.563-7.617-1.303-2.824-2.267-5.648-2.892-8.473-.625-2.824-.937-5.513-.937-8.066 0-5.214 1.385-9.695 4.155-13.443 2.77-3.748 6.68-5.622 11.732-5.622 3.585 0 6.83 1.114 9.736 3.34 2.907 2.228 5.188 5.052 6.845 8.474 1.656 3.422 2.933 6.965 3.83 10.632.895 3.666 1.343 7.13 1.343 10.388 0 5.432-1.18 9.793-3.544 13.08-2.363 3.285-6.178 4.928-11.447 4.928zm22.527 61.183c-1.493 2.553-3.516 4.55-6.07 5.986-2.552 1.44-5.28 2.5-8.187 3.18-2.906.68-5.96 1.02-9.166 1.02-3.475 0-6.925-.408-10.346-1.222-3.42-.814-6.694-2.053-9.817-3.707-3.123-1.655-5.65-3.937-7.577-6.845-1.928-2.904-2.892-6.205-2.892-9.898 0-3.258.733-6.164 2.2-8.717 1.467-2.553 3.34-4.592 5.622-6.11 2.28-1.52 4.942-2.77 7.984-3.747 3.042-.98 5.975-1.656 8.8-2.037 2.823-.38 5.702-.57 8.635-.57 1.792 0 3.15.055 4.073.162.326.22 1.154.79 2.485 1.71 1.33.925 2.227 1.55 2.69 1.876.46.325 1.302.95 2.524 1.873 1.222.924 2.09 1.616 2.607 2.078.514.46 1.26 1.154 2.24 2.077.976.925 1.696 1.724 2.158 2.403.46.68 1.032 1.507 1.71 2.484.68.978 1.154 1.915 1.427 2.81.27.898.53 1.875.772 2.934.244 1.06.366 2.16.366 3.3.002 3.422-.745 6.41-2.24 8.96zM154.93 26.07V5.215H144.5V26.07h-20.857V36.5H144.5v20.857h10.43V36.5h20.855V26.07z"/></g></symbol><symbol viewBox="0 0 216 146" id="btn-mail"><g fill="#fff"><path d="M49.013 51.003c1.847 1.303 7.414 5.174 16.702 11.61C75.003 69.05 82.118 74.005 87.06 77.48c.544.382 1.698 1.21 3.463 2.485 1.765 1.277 3.232 2.31 4.4 3.098 1.167.787 2.58 1.67 4.236 2.646 1.656.976 3.218 1.71 4.684 2.196 1.467.49 2.825.734 4.074.734h.164c1.25 0 2.607-.244 4.074-.734 1.466-.486 3.03-1.22 4.685-2.197 1.657-.98 3.07-1.86 4.237-2.647s2.634-1.82 4.4-3.098c1.764-1.277 2.92-2.104 3.462-2.484 4.995-3.476 17.706-12.3 38.128-26.478 3.965-2.77 7.277-6.11 9.938-10.02C179.67 37.07 181 32.97 181 28.678c0-3.586-1.29-6.655-3.87-9.208s-5.637-3.83-9.166-3.83H48.034c-4.18 0-7.4 1.413-9.653 4.237S35 26.234 35 30.47c0 3.423 1.494 7.13 4.48 11.123 2.988 3.992 6.166 7.13 9.533 9.41zM172.852 59.72c-17.813 12.057-31.34 21.426-40.572 28.108-3.096 2.28-5.607 4.06-7.536 5.336-1.93 1.277-4.494 2.58-7.7 3.91-3.203 1.332-6.19 1.996-8.96 1.996h-.166c-2.77 0-5.758-.664-8.962-1.995s-5.77-2.634-7.7-3.91c-1.927-1.276-4.44-3.056-7.535-5.337C76.39 82.45 62.89 73.08 43.23 59.72c-3.097-2.063-5.84-4.427-8.23-7.088v64.688c0 3.586 1.276 6.654 3.83 9.207 2.552 2.554 5.62 3.83 9.206 3.83h119.93c3.583 0 6.652-1.276 9.205-3.83 2.555-2.555 3.83-5.62 3.83-9.207V52.632c-2.336 2.606-5.05 4.97-8.148 7.088z"/></g></symbol><symbol viewBox="0 0 216 146" id="btn-twitter"><path fill="#fff" d="M172.2 33.24c-5.05 2.174-10.103 3.53-15.152 4.076 5.703-3.422 9.56-8.256 11.57-14.502-5.216 3.095-10.783 5.213-16.703 6.354-5.215-5.54-11.623-8.31-19.228-8.31-7.278 0-13.483 2.565-18.617 7.698-5.133 5.133-7.7 11.338-7.7 18.616 0 1.955.218 3.965.653 6.03-10.755-.544-20.844-3.246-30.268-8.107-9.424-4.862-17.422-11.34-23.994-19.432-2.39 4.073-3.584 8.5-3.584 13.28 0 4.508 1.06 8.69 3.178 12.547 2.118 3.856 4.97 6.98 8.555 9.37-4.238-.164-8.203-1.278-11.896-3.342v.326c0 6.354 1.996 11.935 5.988 16.743 3.992 4.808 9.03 7.835 15.113 9.084-2.28.598-4.59.897-6.925.897-1.52 0-3.178-.135-4.97-.405 1.684 5.27 4.78 9.6 9.288 12.993 4.508 3.396 9.614 5.146 15.317 5.257-9.56 7.493-20.45 11.24-32.67 11.24-2.336 0-4.454-.105-6.355-.323 12.22 7.874 25.69 11.812 40.41 11.812 9.343 0 18.115-1.48 26.315-4.44 8.203-2.96 15.21-6.925 21.02-11.895 5.813-4.97 10.823-10.686 15.032-17.15 4.21-6.463 7.345-13.21 9.41-20.244 2.063-7.035 3.096-14.08 3.096-21.143 0-1.52-.026-2.66-.082-3.422 5.162-3.75 9.563-8.285 13.2-13.607z"/></symbol><symbol viewBox="0 0 216 146" id="btn-youtube"><g fill="#fff"><path d="M166.254 75.443c-.705-3.206-2.268-5.894-4.684-8.065-2.418-2.172-5.202-3.45-8.354-3.83-9.992-1.085-25.064-1.628-45.218-1.628-20.152 0-35.197.543-45.137 1.63-3.203.38-6 1.656-8.39 3.828-2.39 2.173-3.966 4.86-4.727 8.065-1.412 6.302-2.118 15.807-2.118 28.517 0 12.927.706 22.433 2.118 28.517.707 3.203 2.27 5.894 4.686 8.064 2.416 2.174 5.2 3.423 8.35 3.75C72.776 145.43 87.85 146 108 146s35.225-.57 45.217-1.71c3.15-.327 5.92-1.576 8.31-3.75 2.393-2.17 3.968-4.86 4.728-8.063 1.412-6.302 2.12-15.807 2.12-28.517-.003-12.927-.71-22.433-2.12-28.517zm-84.162 8.23h-8.718v46.358h-8.147V83.675h-8.555v-7.658h25.42v7.658zm21.997 46.358h-7.252v-4.4c-2.933 3.315-5.704 4.972-8.31 4.972-2.5 0-4.075-1.006-4.726-3.015-.434-1.304-.652-3.287-.652-5.948V89.782h7.25v29.656c0 1.737.028 2.687.083 2.85.163 1.142.733 1.712 1.71 1.712 1.467 0 3.016-1.14 4.645-3.422V89.783h7.25v40.248zm27.7-12.057c0 3.965-.244 6.682-.73 8.15-.926 2.984-2.853 4.478-5.786 4.478-2.606 0-5.133-1.493-7.578-4.478v3.91h-7.25V76.015h7.25v17.68c2.338-2.932 4.86-4.398 7.578-4.398 2.934 0 4.86 1.52 5.785 4.563.486 1.413.73 4.102.73 8.066v16.047zm27.538-6.68h-14.583v7.088c0 3.75 1.248 5.622 3.747 5.622 1.792 0 2.88-.977 3.26-2.934.107-.543.162-2.2.162-4.97h7.414v1.06c0 2.662-.055 4.236-.163 4.727-.162 1.465-.73 2.932-1.71 4.398-1.956 2.88-4.89 4.318-8.8 4.318-3.748 0-6.68-1.385-8.8-4.153-1.574-2.01-2.362-5.16-2.362-9.45V102.9c0-4.29.76-7.44 2.28-9.45 2.12-2.77 5.024-4.155 8.72-4.155 3.64 0 6.52 1.385 8.635 4.154 1.468 2.01 2.2 5.16 2.2 9.45v8.393zM121.36 95.895c-1.25 0-2.47.6-3.665 1.793v24.522c1.195 1.194 2.416 1.792 3.666 1.792 2.118 0 3.18-1.818 3.18-5.46v-17.188c0-3.64-1.06-5.46-3.18-5.46zM148.41 95.895c-2.443 0-3.665 1.848-3.665 5.54v3.747h7.332v-3.748c0-3.694-1.223-5.54-3.666-5.54zM77.368 32.508v22.08h8.147v-22.08L95.372 0h-8.31l-5.54 21.428L75.74 0h-8.636c1.52 4.563 3.286 9.64 5.296 15.236 2.553 7.495 4.21 13.253 4.97 17.272zM106.29 55.158c3.747 0 6.625-1.385 8.635-4.155 1.52-2.01 2.28-5.215 2.28-9.614V27.13c0-4.344-.76-7.522-2.28-9.532-2.01-2.77-4.888-4.155-8.636-4.155-3.64 0-6.493 1.385-8.556 4.155-1.52 2.01-2.28 5.188-2.28 9.533v14.26c0 4.344.76 7.55 2.28 9.613 2.064 2.77 4.915 4.155 8.555 4.155zm-3.505-29.494c0-3.748 1.168-5.622 3.504-5.622s3.502 1.874 3.502 5.622v17.11c0 3.802-1.167 5.702-3.503 5.702s-3.505-1.9-3.505-5.703v-17.11zM128.693 55.158c2.717 0 5.515-1.684 8.393-5.052v4.48h7.414V13.933h-7.414v31.04c-1.63 2.337-3.177 3.504-4.645 3.504-.978 0-1.548-.597-1.71-1.792-.056-.11-.082-1.06-.082-2.852v-29.9h-7.414v32.1c0 2.77.218 4.807.652 6.11.707 2.01 2.31 3.016 4.807 3.016z"/></g></symbol><symbol fill-rule="evenodd" clip-rule="evenodd" stroke-linejoin="round" stroke-miterlimit="1.414" viewBox="0 0 100 100" id="calendar"><path d="M63.642 57.727h10.676V46.724H63.642zm-19.18-11.004h10.674v11.003H44.46zm-19.184 0h10.676v11.003H25.278zM63.642 65.83h10.675v11.004H63.642zm-19.18 0h10.674v11.004H44.46zm-19.183 0h10.674v11.004H25.28V65.83zm-3.81-44.503c0 2.09 1.64 3.783 3.664 3.783s3.667-1.694 3.667-3.783v-9.51c0-2.084-1.64-3.778-3.666-3.778-2.025 0-3.666 1.693-3.666 3.776v9.51zm49.538-9.525c0-2.09 1.642-3.78 3.667-3.78 2.026 0 3.667 1.69 3.667 3.78v9.51c0 2.087-1.64 3.777-3.667 3.777-2.025 0-3.667-1.69-3.667-3.778zm-53.97 5.518v3.874c0 4.6 3.63 8.342 8.096 8.342s8.1-3.742 8.1-8.342V17.32h33.342v3.854c0 4.603 3.634 8.346 8.1 8.346 4.464 0 8.097-3.743 8.097-8.346V17.32h8.796v17.35H8.43V17.32h8.605zm-4.642 16.767v53.925h75.208V34.087zM8.43 30.124H91.57v61.854H8.43z"/></symbol><symbol fill-rule="evenodd" clip-rule="evenodd" stroke-linejoin="round" stroke-miterlimit="1.414" viewBox="0 0 32 32" id="camera"><g><g><path d="M16.022 9.995c-4.07 0-7.37 3.3-7.37 7.37s3.3 7.37 7.37 7.37 7.37-3.3 7.37-7.37-3.3-7.37-7.37-7.37zm4.196 10.967c-1.986 2.318-5.475 2.586-7.793.6-2.32-1.988-2.586-5.477-.6-7.794 1.987-2.32 5.476-2.586 7.794-.6 2.316 1.987 2.584 5.477.598 7.794zM16.022 13.68c-2.035 0-3.684 1.65-3.685 3.684 0 .255.206.462.46.462.255 0 .46-.207.46-.46v-.002c.002-1.526 1.238-2.763 2.765-2.763.254 0 .46-.205.46-.46 0-.254-.206-.46-.46-.46zM28.45 9.11l-3.992-.665-1.265-3.163c-.423-1.055-1.43-1.737-2.565-1.737h-9.213c-1.134 0-2.142.682-2.566 1.738L7.584 8.445l-3.992.666c-1.34.223-2.31 1.37-2.31 2.726v13.82c0 1.522 1.24 2.762 2.763 2.762h23.951c1.524 0 2.764-1.24 2.764-2.763v-13.82c0-1.356-.97-2.502-2.31-2.724zm.47 16.545c0 .51-.413.92-.923.92H4.047c-.51 0-.922-.41-.922-.92v-13.82c0-.45.326-.833.77-.907l5.015-.836 1.65-4.125c.14-.35.48-.58.855-.58h9.213c.376 0 .714.23.855.58l1.65 4.125 5.016.836c.443.074.77.458.77.908z"/></g></g></symbol><symbol fill-rule="evenodd" clip-rule="evenodd" stroke-linejoin="round" stroke-miterlimit="1.414" viewBox="0 0 216 146" id="chevron-left"><path d="M71.01 65.667l53.12-53.04c1.956-2.063 4.4-3.095 7.333-3.095 2.934 0 5.377 1.033 7.333 3.096l6.192 6.11c2.01 2.01 3.015 4.454 3.015 7.333 0 2.825-1.005 5.297-3.015 7.415L105.392 73l39.597 39.596c2.01 2.01 3.014 4.454 3.014 7.334 0 2.823-1.005 5.295-3.015 7.414l-6.193 6.11c-2.01 2.01-4.455 3.015-7.333 3.015-2.88 0-5.324-1.007-7.333-3.017l-53.12-53.04C69 78.297 67.996 75.824 67.996 73c0-2.88 1.006-5.323 3.016-7.333z"/></symbol><symbol viewBox="0 0 216 146" id="chevron-right"><path d="M144.988 65.667l-53.12-53.04c-1.955-2.063-4.398-3.095-7.332-3.095s-5.377 1.033-7.333 3.096l-6.192 6.11c-2.01 2.01-3.014 4.454-3.014 7.333 0 2.825 1.005 5.297 3.015 7.415L110.608 73 71.01 112.596c-2.01 2.01-3.015 4.454-3.015 7.334 0 2.823 1.005 5.295 3.015 7.414l6.192 6.11c2.01 2.01 4.455 3.015 7.333 3.015 2.88 0 5.324-1.007 7.333-3.017l53.12-53.04c2.01-2.117 3.016-4.59 3.016-7.413 0-2.88-1.006-5.323-3.016-7.333z"/></symbol><symbol viewBox="0 0 100 100" id="clock"><path d="M50 90c22.057 0 40-17.943 40-40 0-22.056-17.943-40-40-40-22.056 0-40 17.944-40 40 0 22.057 17.944 40 40 40zm0-72c17.645 0 32 14.355 32 32 0 17.646-14.355 32-32 32S18 67.645 18 50s14.355-32 32-32zM46.08 50.784c.02.113.064.22.097.33.04.14.073.28.13.417.052.13.125.245.19.365.06.108.107.22.177.324.134.2.288.384.455.556.015.017.025.036.04.053l16 16c1.563 1.56 4.095 1.56 5.657 0 1.562-1.564 1.562-4.096 0-5.658L54 48.342V32.25c0-2.21-1.79-4-4-4s-4 1.79-4 4V50c0 .262.027.525.08.784z"/></symbol><symbol viewBox="0 0 100 100" id="close"><g fill="none" stroke-width="6" stroke-miterlimit="10"><circle cx="50" cy="50" r="47"/><path d="M71.214 71.213L28.787 28.787M28.787 71.213l42.427-42.426"/></g></symbol><symbol fill-rule="evenodd" clip-rule="evenodd" stroke-linejoin="round" stroke-miterlimit="1.414" viewBox="0 0 100 100" id="exclamation"><g><path d="M50 94.208C25.586 94.208 5.794 74.416 5.794 50 5.793 25.586 25.585 5.792 50 5.792c24.415 0 44.207 19.792 44.207 44.208 0 24.415-19.792 44.208-44.206 44.208zm0-83.593c-21.716 0-39.384 17.667-39.384 39.385 0 21.716 17.668 39.385 39.385 39.385S89.385 71.715 89.385 50c0-21.718-17.667-39.385-39.383-39.385zM43.6 73.94h12.37V44.548H43.6v29.395zm12.993-42.28c0-3.76-3.048-6.81-6.808-6.81s-6.808 3.05-6.808 6.81 3.048 6.807 6.808 6.807 6.808-3.048 6.808-6.808z"/></g></symbol><symbol viewBox="0 0 48 40" id="fa-bars"><path d="M48 6c0 1.094-.906 2-2 2H2C.906 8 0 7.094 0 6V2C0 .906.906 0 2 0h44c1.094 0 2 .906 2 2v4m0 16c0 1.094-.906 2-2 2H2c-1.094 0-2-.906-2-2v-4c0-1.094.906-2 2-2h44c1.094 0 2 .906 2 2v4m0 16c0 1.094-.906 2-2 2H2c-1.094 0-2-.906-2-2v-4c0-1.094.906-2 2-2h44c1.094 0 2 .906 2 2v4"/></symbol><symbol viewBox="0 0 100 100" id="facebook"><path d="M99.996 93.75c0 3.418-2.832 6.25-6.25 6.25H68.75V61.133h12.496l2.1-14.404H68.75V35.4c0-4.102 2.1-6.445 6.25-6.445h9.37V15.967s-4.198-.684-10.25-.684c-13.72 0-20.653 7.617-20.653 18.994v12.45h-12.5v14.405h12.5V100H6.25C2.832 100 0 97.168 0 93.75V6.25C0 2.832 2.832 0 6.25 0h87.496c3.418 0 6.25 2.832 6.25 6.25v87.5z"/></symbol><symbol viewBox="0.5 100.5 100 100" enable-background="new 0.5 100.5 100 100" id="games"><path d="M81.76 105.935l-46.727 1.117-33.393 31.8 48.637 4.216 31.483-37.133zm-39.817 18.94c-3.078 1.47-5.697 1.82-5.852.784-.155-1.04 2.214-3.07 5.293-4.542 3.077-1.472 5.698-1.822 5.855-.784.157 1.036-2.215 3.068-5.295 4.54zM.5 143.976l24.144 41.5 46.618 9.59-21.648-46.84L.5 143.976zm30.984 38.378c-2.48-.084-5.177-1.793-6.017-3.816-.85-2.02.474-3.586 2.954-3.502 2.48.085 5.173 1.792 6.017 3.812.845 2.022-.48 3.59-2.953 3.506zm5.76-11.825c-2.48-.086-5.178-1.795-6.018-3.815-.85-2.02.473-3.59 2.953-3.504 2.48.085 5.172 1.792 6.017 3.813.846 2.017-.482 3.588-2.954 3.506zM43 158.702c-2.48-.085-5.172-1.79-6.017-3.814-.847-2.022.474-3.586 2.954-3.505 2.478.09 5.17 1.79 6.015 3.816.848 2.018-.476 3.592-2.953 3.503zM86.422 108.667l-31.8 37.495 21.66 46.864 24.218-39.03-14.078-45.33zm-18.356 44.61c-1.62.558-2.78-1.28-2.596-4.105.19-2.82 1.652-5.56 3.27-6.117 1.622-.556 2.782 1.286 2.597 4.108-.19 2.82-1.65 5.562-3.27 6.115zm10.76 26.46c-1.58.646-2.846-1.116-2.824-3.95.02-2.828 1.322-5.647 2.908-6.294s2.85 1.12 2.83 3.95c-.025 2.828-1.326 5.648-2.914 6.294zm2.29-23.964c-1.585.646-2.85-1.122-2.827-3.95.02-2.828 1.32-5.65 2.91-6.296 1.583-.646 2.85 1.12 2.825 3.947-.02 2.832-1.322 5.648-2.91 6.3zm2.243-23.504c-1.585.645-2.85-1.12-2.83-3.95.024-2.83 1.33-5.65 2.91-6.295 1.583-.65 2.853 1.118 2.83 3.947-.02 2.825-1.327 5.65-2.91 6.297zm9.478 25.83c-1.62.56-2.777-1.282-2.592-4.107.186-2.82 1.652-5.558 3.273-6.113 1.618-.56 2.782 1.285 2.59 4.104-.184 2.825-1.65 5.56-3.272 6.115z"/></symbol><symbol viewBox="0 0 100 100" id="googleplus"><path d="M52.54 74.438c0 9.473-9.132 18.848-25.782 18.848C12.256 93.286 0 87.378 0 77.906c0-9.62 11.23-18.897 25.684-18.897h4.54c-2-1.954-3.466-4.25-3.466-7.18 0-1.708.44-3.466 1.27-4.93-.83.097-1.66.097-2.44.097-11.915 0-19.923-8.447-19.923-18.994 0-10.303 10.985-19.19 22.802-19.19H54.64l-5.91 4.248h-8.35c5.567 2.1 8.448 8.448 8.448 15.09 0 5.517-2.98 10.253-7.373 13.622-4.2 3.37-4.98 4.736-4.98 7.52 0 2.44 4.492 6.494 6.934 8.105 6.834 4.98 9.13 9.522 9.13 17.04zm-6.837 1.026c0-.928-.098-1.758-.195-2.686-1.172-4.248-5.127-6.445-10.547-10.254-1.952-.586-4.15-.928-6.493-1.074-10.06 0-18.994 6.152-18.994 13.672 0 7.617 7.178 14.014 17.285 14.014 14.11 0 18.945-6.055 18.945-13.672zm-6.25-46.777C38.33 19.8 31.933 12.72 25.098 12.524c-6.69-.244-11.23 6.592-10.06 15.38 1.173 8.888 7.667 16.212 14.356 16.407 6.74.246 11.23-6.786 10.06-15.623zM100 27.563H83.35v16.65h-4.2v-16.65H62.5v-4.2h16.65V6.714h4.2v16.65H100v4.2z"/></symbol><symbol viewBox="42.75 18 130.75 106.5" enable-background="new 42.75 18 130.75 106.5" id="icon-home"><path d="M167.29 79.72c-.4.48-1.04.802-1.683.883h-.24c-.64 0-1.2-.16-1.682-.562L108.25 33.82 52.815 80.04c-.56.4-1.202.643-1.923.563-.64-.08-1.282-.4-1.682-.882l-4.967-5.927c-.88-1.042-.72-2.723.32-3.604l57.598-47.986c3.366-2.804 8.813-2.804 12.177 0l19.547 16.342V22.924c0-1.442 1.12-2.563 2.563-2.563h15.38c1.443 0 2.564 1.123 2.564 2.564V55.61l17.545 14.58c1.04.88 1.2 2.562.32 3.603l-4.965 5.928zm-12.897 38.052c0 2.804-2.323 5.127-5.127 5.127h-30.762V92.137H97.996V122.9H67.234c-2.804 0-5.127-2.323-5.127-5.127V79.32c0-.16.08-.32.08-.48l46.063-37.97 46.063 37.97c.08.16.08.32.08.48v38.452z"/></symbol><symbol viewBox="0 0 100 100" id="link"><path d="M82.64 40.452L69.985 53.11c-1.164 1.163-3.054 1.163-4.218 0s-1.164-3.055 0-4.22l12.657-12.656c3.49-3.49 3.49-9.165 0-12.657s-9.165-3.49-12.657 0L48.89 40.452c-1.034 1.06-5.954 6.702 0 12.657 1.165 1.163 1.165 3.053 0 4.217s-3.053 1.164-4.217 0c-8.343-8.343-3.648-17.445 0-21.093L61.548 19.36c5.814-5.815 15.28-5.815 21.093 0 5.815 5.813 5.812 15.278 0 21.092zm-25.313 4.22c-1.164-1.163-3.054-1.163-4.218 0-1.165 1.165-1.165 3.055 0 4.22 5.954 5.954 1.034 11.594 0 12.656L36.233 78.423c-3.49 3.49-9.165 3.49-12.657 0-3.492-3.49-3.49-9.165 0-12.657L36.234 53.11c1.164-1.165 1.164-3.055 0-4.22s-3.054-1.163-4.218 0L19.36 61.55c-5.815 5.814-5.815 15.28 0 21.093 5.813 5.815 15.278 5.815 21.092 0l16.875-16.874c3.648-3.648 8.343-12.753 0-21.093z"/></symbol><symbol viewBox="0.5 100.5 100 100" enable-background="new 0.5 100.5 100 100" id="list"><path d="M96.905 177.756c1.314 0 2.383 1.066 2.383 2.383 0 1.316-1.068 2.383-2.383 2.383H32.05c-1.318 0-2.384-1.066-2.384-2.384 0-1.317 1.065-2.384 2.383-2.384h64.855zM33.26 152.38c-1.316 0-2.383-1.066-2.383-2.383 0-1.315 1.066-2.383 2.383-2.383h64.857c1.315 0 2.383 1.067 2.383 2.383s-1.067 2.383-2.383 2.383H33.26zm64.857-29.135H33.26c-1.316 0-2.383-1.068-2.383-2.383s1.066-2.383 2.383-2.383h64.857c1.315 0 2.383 1.066 2.383 2.382 0 1.315-1.067 2.383-2.383 2.383zm-87.54 66.97C5.01 190.216.5 185.706.5 180.14c0-5.565 4.512-10.077 10.076-10.077 5.565 0 10.077 4.512 10.077 10.076 0 5.564-4.51 10.076-10.077 10.076zm4.8-10.43l-6.98-4.03c-.062-.035-.133-.053-.203-.053s-.14.018-.203.054c-.124.073-.202.208-.202.354v8.06c0 .145.078.278.203.352.127.073.282.073.408 0l6.98-4.028c.125-.073.203-.207.203-.354s-.077-.28-.204-.354zm-4.8-19.208C5.01 160.577.5 156.065.5 150.5c0-5.564 4.512-10.076 10.076-10.076 5.565 0 10.077 4.512 10.077 10.076 0 5.565-4.51 10.077-10.077 10.077zm4.8-10.43l-6.98-4.03c-.062-.036-.133-.054-.203-.054s-.14.02-.203.054c-.124.073-.202.207-.202.353v8.06c0 .146.078.28.203.353.127.073.282.073.408 0l6.98-4.028c.125-.073.203-.207.203-.354 0-.146-.077-.28-.204-.353zm-4.8-19.21C5.01 130.938.5 126.428.5 120.863c0-5.565 4.512-10.077 10.076-10.077 5.565 0 10.077 4.512 10.077 10.077s-4.51 10.076-10.077 10.076zm4.8-10.428l-6.98-4.03c-.062-.037-.133-.055-.203-.055s-.14.018-.203.054c-.124.072-.202.206-.202.352v8.062c0 .146.078.28.203.353.127.073.282.072.408 0l6.98-4.028c.125-.075.203-.208.203-.355s-.077-.283-.204-.356z"/></symbol><symbol viewBox="0 0 100 100" id="location"><path d="M50 0C31.294 0 16.13 15.165 16.13 33.87c0 .4.01.81.03 1.22.126 3.56.797 6.976 1.938 10.173C25.324 69.015 50 100 50 100s24.673-30.982 31.9-54.734c1.143-3.197 1.813-6.617 1.94-10.175.02-.41.03-.818.03-1.22C83.87 15.165 68.706 0 50 0zm0 50.46c-9.16 0-16.59-7.43-16.59-16.59S40.84 17.282 50 17.282c9.162 0 16.59 7.428 16.59 16.588S59.16 50.46 50 50.46z"/></symbol><symbol viewBox="0 0 100 100" id="mail"><path d="M50 56.25L0 18.75c0-3.467 2.783-6.25 6.25-6.25h87.5c3.467 0 6.25 2.783 6.25 6.25l-50 37.5zm0 11.23l50-37.5v51.27c0 3.467-2.783 6.25-6.25 6.25H6.25C2.783 87.5 0 84.717 0 81.25V29.98l50 37.5z"/></symbol><symbol viewBox="0 0 100 100" id="mail-line"><path d="M100 13.812v72.375H0V13.812h100zM46.92 54.586c1.543 1.363 4.147 1.362 5.69-.002l38.986-34.492H7.934L46.92 54.586zm13.89-2.016L93.72 77.152v-53.7L60.81 52.57zm-3.005 2.657l-2.596 2.296c-1.503 1.33-3.473 1.995-5.444 1.995s-3.943-.666-5.443-1.994l-2.598-2.298-33.05 24.682h82.18l-33.05-24.68zM38.72 52.57L6.28 23.867V76.8l32.44-24.23z"/></symbol><symbol fill-rule="evenodd" clip-rule="evenodd" stroke-linejoin="round" stroke-miterlimit="1.414" viewBox="0 0 100 100" id="mobile-phone"><path d="M56.05 88.71c0 3.328-2.723 6.05-6.05 6.05s-6.05-2.722-6.05-6.05c0-3.325 2.723-6.047 6.05-6.047s6.05 2.722 6.05 6.048zm15.725-12.096c0 1.285-1.134 2.42-2.42 2.42h-38.71c-1.286 0-2.42-1.135-2.42-2.42V23.386c0-1.285 1.134-2.42 2.42-2.42h38.71c1.286 0 2.42 1.135 2.42 2.42zM57.258 12.498c0 .68-.53 1.21-1.21 1.21H43.952c-.68 0-1.208-.53-1.208-1.21 0-.68.53-1.21 1.21-1.21h12.097c.68 0 1.208.53 1.208 1.21zm21.776-1.21c0-5.292-4.386-9.677-9.678-9.677H30.644c-5.292 0-9.677 4.386-9.677 9.68v77.42c0 5.294 4.385 9.68 9.677 9.68h38.712c5.292 0 9.678-4.386 9.678-9.68z"/></symbol><symbol viewBox="0 27.5 100 43" enable-background="new 0 27.5 100 43" id="most-read"><path d="M91.258 51.793v-.02c-.434 4.335-2.443 8.473-5.693 11.507-3.37 3.133-7.742 4.867-12.354 4.867-8.176 0-15.228-5.398-17.437-13.2-1.378 1.377-3.645 2.303-5.773 2.303s-4.393-.926-5.772-2.305c-2.207 7.803-9.26 13.2-17.437 13.2-4.59 0-8.983-1.714-12.353-4.848-3.25-3.054-5.26-7.19-5.694-11.526H5.866v-3.545h2.876c.434-4.334 2.443-8.473 5.694-11.506 3.37-3.134 7.744-4.867 12.354-4.867 10.01 0 18.146 8.118 18.146 18.126V50c0 1.95 2.266 4.256 5.064 4.256 2.8 0 5.064-2.306 5.064-4.256v-.02c0-10.01 8.137-18.127 18.146-18.127 4.59 0 8.983 1.714 12.354 4.866 3.25 3.032 5.26 7.19 5.693 11.525h2.874v3.547H91.26zM26.79 36.76c-7.306 0-13.24 5.95-13.24 13.24 0 7.307 5.95 13.24 13.24 13.24 7.308 0 13.24-5.95 13.24-13.24 0-7.308-5.932-13.24-13.24-13.24zm46.42 0c-7.308 0-13.24 5.95-13.24 13.24 0 7.307 5.95 13.24 13.24 13.24 7.308 0 13.24-5.95 13.24-13.24 0-7.308-5.93-13.24-13.24-13.24z"/></symbol><symbol viewBox="0.5 100.5 100 100" enable-background="new 0.5 100.5 100 100" id="musicsearch"><path d="M47.72 116.513c3.4-6.864 11.44-9.58 20.496-9.958v-.052h4.56v67.09c2.934-2.32 7.04-3.767 11.592-3.767 8.91 0 16.133 5.522 16.133 12.335s-7.223 12.337-16.133 12.337c-8.87 0-16.06-5.47-16.13-12.24h-.022v-60.915c-14.157-.203-23.362 8.184-23.362 8.184s.55-8.336 2.868-13.013zM1.7 184.063L15.23 170.21c.44-.448.955-.763 1.502-.966-2.238-3.23-3.557-7.142-3.557-11.36 0-11.036 8.98-20.016 20.014-20.016 11.037 0 20.018 8.98 20.018 20.016s-8.98 20.014-20.018 20.014c-4.135 0-7.984-1.262-11.178-3.42-.194.61-.51 1.188-.983 1.672l-13.53 13.856c-1.6 1.64-4.194 1.64-5.796 0s-1.6-4.3 0-5.94zm31.486-10.728c8.52 0 15.455-6.935 15.455-15.455 0-8.522-6.933-15.455-15.454-15.455S17.73 149.357 17.73 157.88c.002 8.52 6.934 15.454 15.456 15.455z"/></symbol><symbol fill-rule="evenodd" clip-rule="evenodd" stroke-linejoin="round" stroke-miterlimit="1.414" viewBox="0 0 80 80" id="pencil-square"><path d="M39.83 55.42h-2.453v-4.205H33.17v-2.453l5.083-5.082 6.66 6.66-5.083 5.08zM59.106 23.88c.395.395.35 1.052-.044 1.446L43.73 40.657c-.395.394-1.052.438-1.446.044-.395-.393-.35-1.05.043-1.445L57.66 23.922c.395-.394 1.052-.438 1.446-.044zM62.61 49.9c0-.57-.35-1.05-.875-1.27-.526-.22-1.095-.13-1.533.307l-2.804 2.804c-.263.264-.395.614-.395.965v5.52c0 3.855-3.154 7.01-7.01 7.01H13.546c-3.856 0-7.01-3.155-7.01-7.01v-36.45c0-3.855 3.154-7.01 7.01-7.01h36.45c.656 0 1.313.088 1.97.264.482.174 1.008.043 1.402-.352l2.147-2.146c.35-.35.482-.79.394-1.27-.087-.44-.394-.833-.788-1.008-1.62-.745-3.374-1.096-5.126-1.096h-36.45C6.58 9.158.93 14.81.93 21.775v36.45c0 6.965 5.65 12.617 12.617 12.617h36.45c6.965 0 12.616-5.652 12.616-12.617V49.9zm-4.205-32.33l-29.44 29.44v12.617h12.618l29.44-29.44L58.404 17.57zm19.452 5.782c1.62-1.62 1.62-4.337 0-5.958l-6.66-6.66c-1.62-1.62-4.336-1.62-5.957 0l-4.03 4.032 12.616 12.617 4.03-4.03z"/></symbol><symbol viewBox="0 0 100 100" id="pinterest"><path d="M88.672 32.865c0 22.56-12.5 39.355-30.908 39.355-6.25 0-12.06-3.223-14.11-7.03 0 0-3.272 13.183-4.054 15.722-2.44 9.033-9.717 18.066-10.303 18.75-.488.586-1.27.342-1.416-.244-.097-1.172-1.952-12.598.245-21.875 1.025-4.64 7.275-31.25 7.275-31.25s-1.71-3.71-1.71-9.13c0-8.595 4.835-14.845 10.987-14.845 5.225 0 7.764 3.857 7.764 8.594 0 5.225-3.368 13.086-5.126 20.36-1.367 6.153 3.125 11.134 9.18 11.134 10.89 0 18.164-14.014 18.164-30.566 0-12.646-8.447-22.02-23.828-22.02-17.48 0-28.37 12.987-28.37 27.44 0 5.127 1.515 8.594 3.81 11.377 1.025 1.27 1.172 1.71.83 3.125-.244 1.123-.928 3.662-1.172 4.59-.342 1.514-1.514 2.002-2.88 1.514-8.01-3.37-11.72-12.158-11.72-21.973C11.328 19.583 25 .003 52.295.003c22.02 0 36.377 15.87 36.377 32.862z"/></symbol><symbol viewBox="0.5 100.5 100 100" enable-background="new 0.5 100.5 100 100" id="play"><path d="M89.656 156.523l-72.29 43.374c-1.203 0-1.807.603-3.01.603-3.014 0-5.423-2.41-5.423-5.422v-89.156c0-3.012 2.41-5.422 5.422-5.422 1.204 0 1.808.603 3.012 1.205l72.29 42.77c1.807 1.205 2.41 3.615 2.41 6.024 0 2.41-.603 4.82-2.41 6.023z"/></symbol><symbol viewBox="0 0 100 100" id="playbutton"><circle cx="50" cy="50" r="50"/><path fill="#fff" d="M69.072 52.318L41.247 69.012c-.463 0-.696.233-1.16.233-1.16 0-2.087-.927-2.087-2.086V32.84c0-1.16.928-2.086 2.088-2.086.463 0 .696.23 1.16.463L69.072 47.68c.695.464.927 1.39.927 2.318 0 .93-.232 1.856-.928 2.32z"/></symbol><symbol viewBox="0 0 100 100" enable-background="new 0 0 100 100" id="search"><path d="M1.387 92.6l6.05 6.02c1.846 1.834 4.832 1.834 6.682 0l29.846-29.7c.107-.103.182-.218.273-.327 5.498 3.22 11.887 5.103 18.727 5.103 20.458 0 37.03-16.496 37.03-36.85 0-20.355-16.578-36.85-37.03-36.85-20.453 0-37.03 16.495-37.03 36.85 0 7.06 2.035 13.643 5.5 19.247-.063.06-.138.103-.202.16l-29.85 29.7c-1.844 1.833-1.844 4.806 0 6.644m33.392-55.5c0-15.42 12.567-27.922 28.06-27.922 15.497 0 28.07 12.502 28.07 27.922 0 15.426-12.567 27.928-28.07 27.928-15.498-.003-28.06-12.505-28.06-27.928"/></symbol><symbol fill-rule="evenodd" clip-rule="evenodd" stroke-linejoin="round" stroke-miterlimit="1.414" viewBox="0 0 100 100" id="starsearch"><g><path d="M1.2 83.564L14.73 69.708c.44-.448.955-.763 1.502-.966-2.238-3.23-3.557-7.142-3.557-11.36 0-11.036 8.98-20.016 20.014-20.016 11.037 0 20.018 8.98 20.018 20.016 0 11.037-8.98 20.014-20.018 20.014-4.135 0-7.984-1.262-11.178-3.42-.194.61-.51 1.188-.983 1.672L6.997 89.504c-1.6 1.64-4.194 1.64-5.796 0-1.6-1.64-1.6-4.3 0-5.94zm31.486-10.73c8.52 0 15.455-6.934 15.455-15.454 0-8.522-6.933-15.455-15.454-15.455-8.52 0-15.456 6.932-15.456 15.455.002 8.52 6.934 15.454 15.456 15.455zM99.992 25.162c.01-.98-1.03-1.382-1.81-1.52l-16.35-2.56-7.177-14.92c-.286-.624-.833-1.348-1.583-1.356-.75-.008-1.313.703-1.613 1.32l-7.502 14.76-16.4 2.204c-.817.122-1.832.502-1.843 1.48-.007.588.41 1.147.798 1.575L58.26 37.82 55.28 54.1c-.035.228-.07.423-.072.65-.01.85.406 1.637 1.352 1.647.456.005.882-.153 1.31-.377l14.728-7.538 14.562 7.857c.39.232.844.4 1.3.405.946.01 1.346-.77 1.356-1.617.002-.228.004-.424-.026-.653l-2.628-16.34L99.126 26.72c.43-.42.86-.97.866-1.556zM90.495 74.46c.208-.646-.395-1.126-.883-1.38l-10.275-5.064-1.664-11.34c-.06-.472-.273-1.063-.767-1.223-.494-.16-1.013.194-1.338.54l-8.003 8.206-11.292-1.93c-.565-.088-1.314-.046-1.523.598-.126.387.035.843.202 1.206l5.354 10.14-5.33 10.14c-.07.145-.134.266-.182.417-.182.56-.07 1.165.553 1.367.3.098.615.08.943.02l11.29-1.94 8 8.196c.21.234.475.44.776.537.623.2 1.048-.23 1.23-.79.048-.15.09-.278.117-.436l1.635-11.34 10.264-5.075c.37-.19.767-.465.892-.85z"/></g></symbol><symbol viewBox="0 0 100 100" fill-rule="evenodd" clip-rule="evenodd" stroke-linejoin="round" stroke-miterlimit="1.414" id="target"><path d="M16.044 99.997c3.187-4.87 6.937-8.76 11.146-11.558l-3.252-4.89c-4.873 3.24-9.183 7.69-12.808 13.23zm67.863.003l4.91-3.222c-3.578-5.455-7.85-9.858-12.696-13.086l-3.255 4.886c4.184 2.79 7.9 6.632 11.042 11.422zM50 5.873c-22.858 0-41.455 18.596-41.455 41.455 0 22.86 18.597 41.454 41.455 41.454 22.858 0 41.455-18.596 41.455-41.454S72.86 5.873 50 5.873zM50 0c26.14 0 47.328 21.19 47.328 47.328S76.138 94.655 50 94.655c-26.14 0-47.328-21.19-47.328-47.327C2.672 21.188 23.862 0 50 0zm0 34.778c-6.92 0-12.55 5.63-12.55 12.55 0 6.92 5.63 12.55 12.55 12.55 6.92 0 12.55-5.63 12.55-12.55 0-6.92-5.63-12.55-12.55-12.55zm0-5.873c10.175 0 18.423 8.248 18.423 18.423 0 10.175-8.248 18.422-18.423 18.422-10.175 0-18.423-8.247-18.423-18.422S39.827 28.905 50 28.905zm0-5.533c-13.21 0-23.955 10.746-23.955 23.955 0 13.208 10.747 23.956 23.955 23.956 13.208 0 23.956-10.747 23.956-23.955 0-13.21-10.747-23.956-23.956-23.956zm0-5.873c16.474 0 29.828 13.353 29.828 29.827C79.828 63.8 66.474 77.155 50 77.155S20.172 63.8 20.172 47.327C20.172 30.853 33.526 17.5 50 17.5z"/></symbol><symbol viewBox="0 0 100 100" id="thumblr"><path d="M59.4 100c-18.75 0-27.1-8.35-27.1-25V43.75H17.7v-14.6C30.2 25 38.55 18.75 40.65 0H55.2v25h22.95v18.75H55.2v25c0 10.4 2.1 14.6 12.5 14.6 6.25 0 14.6-4.2 14.6-4.2v15.43S73.95 100 59.4 100z"/></symbol><symbol viewBox="0.5 100.5 100 100" enable-background="new 0.5 100.5 100 100" id="traffic"><path d="M71.817 155.695H29.182c-.952 0-1.724-.772-1.724-1.724s.77-1.722 1.724-1.722h42.636c.952 0 1.724.77 1.724 1.724 0 .952-.772 1.723-1.725 1.723zm0 9.8H29.18c-.95 0-1.723-.77-1.723-1.723s.77-1.723 1.724-1.723h42.637c.952 0 1.724.77 1.724 1.722s-.77 1.724-1.723 1.724zM10.794 134.46H3.787c-.95 0-1.723-.77-1.723-1.723s.77-1.723 1.723-1.723h8.334c.042 0 .076.02.115.022l5.547-13.183s1.858-6.1 6.112-6.1c5.276-.003 47.936-.003 53.213-.003 4.46 0 6.11 6.102 6.11 6.102l5.527 13.13h8.344c.968 0 1.752.784 1.752 1.752s-.784 1.75-1.752 1.75h-6.87l2.618 6.23h7.663v36.314h-3.412v10.467c0 .97-.784 1.752-1.75 1.752h-15.17c-.967 0-1.75-.783-1.75-1.752v-10.467H21.89v10.496c0 .95-.77 1.723-1.723 1.723H5.554c-.952 0-1.724-.77-1.724-1.724v-10.495H.5v-36.314h7.662l2.632-6.254zm68.062-14.772l-.12-.298-.076-.266c-.345-1.195-1.176-2.48-1.554-2.643H23.988c-.498.303-1.33 1.66-1.68 2.75l-.072.232-8.605 20.453h73.737l-8.51-20.227zM5.23 172.298h90.538v-26.853H5.23V172.3z"/></symbol><symbol viewBox="0 0 100 100" id="twitter"><path d="M89.795 29.59v2.686c0 27.1-20.605 58.35-58.3 58.35-11.573 0-22.462-2.54-31.495-8.35 1.61.244 3.223.342 4.883.342 9.57 0 18.506-4.15 25.44-9.717-8.888-.097-16.554-6.15-19.093-14.257 1.27.244 2.54.39 3.81.39 1.854 0 3.71-.243 5.468-.73-9.375-1.858-16.455-10.158-16.455-20.12v-.243c2.783 1.514 5.908 2.44 9.277 2.54-5.566-3.712-9.18-9.962-9.18-16.993 0-3.81 1.074-6.934 2.783-9.96C17.14 25.926 32.178 33.642 49.17 34.57c-.342-1.465-.44-3.125-.44-4.736 0-11.328 9.132-20.46 20.46-20.46 5.908 0 11.23 2.54 15.088 6.446 4.59-.928 9.033-2.637 12.94-4.98-1.515 4.785-4.737 8.838-9.034 11.377 4.2-.488 8.105-1.61 11.816-3.27-2.783 4.198-6.25 7.762-10.205 10.643z"/></symbol><symbol fill-rule="evenodd" clip-rule="evenodd" stroke-linejoin="round" stroke-miterlimit="1.414" viewBox="0 0 80 80" id="user"><path d="M74.064 62.723c0-10.09-2.565-25.58-16.742-25.58-1.5 0-7.838 6.205-17.322 6.205-9.484 0-15.822-6.205-17.322-6.205-14.177 0-16.742 15.49-16.742 25.58 0 7.232 5.226 11.563 12.92 11.563h42.29c7.692 0 12.918-4.33 12.918-11.563zM58.58 22.857c0-9.464-8.322-17.143-18.58-17.143s-18.58 7.68-18.58 17.143C21.42 32.32 29.742 40 40 40s18.58-7.68 18.58-17.143z"/></symbol><symbol viewBox="0.5 100.5 100 100" enable-background="new 0.5 100.5 100 100" id="weather"><path d="M50.5 176.54c-14.38 0-26.04-11.66-26.04-26.042 0-14.38 11.658-26.04 26.04-26.04s26.04 11.66 26.04 26.042c0 14.38-11.66 26.04-26.04 26.04zm0-44.47c-10.164 0-18.43 8.267-18.43 18.43 0 10.164 8.266 18.43 18.43 18.43 10.162 0 18.428-8.266 18.428-18.43 0-10.162-8.267-18.43-18.43-18.43zm4.748-31.57l-3.088 17.51 7.89 1.39 3.088-17.508-7.89-1.392zm-9.5 100l3.087-17.508-7.888-1.39-3.087 17.507 7.89 1.39zM.5 145.752l17.507 3.086 1.39-7.89-17.506-3.085-1.39 7.89zm99.997 9.492l-17.507-3.088-1.39 7.89 17.505 3.087 1.392-7.89zm-75.435-48.05L18.5 111.79l10.2 14.562 6.562-4.595-10.2-14.562zm50.87 86.615l6.562-4.598-10.198-14.562-6.563 4.597L75.93 193.81zm-64.146-11.314l14.562-10.198-4.594-6.562L7.19 175.934l4.596 6.562zm77.43-63.996L74.65 128.7l4.595 6.564 14.567-10.202-4.596-6.562z"/></symbol><symbol viewBox="0 0 100 100" id="webcam"><path d="M16.043 99.996c3.188-4.87 6.938-8.758 11.146-11.56l-3.253-4.888c-4.873 3.24-9.184 7.69-12.81 13.232l4.916 3.216zm67.863.004l4.91-3.223c-3.578-5.455-7.85-9.857-12.695-13.086l-3.256 4.888c4.185 2.787 7.9 6.63 11.042 11.422zM50 5.873c-22.858 0-41.455 18.596-41.455 41.454S27.142 88.78 50 88.78c22.857 0 41.454-18.595 41.454-41.453C91.454 24.47 72.858 5.873 50 5.873zM50 0c26.14 0 47.327 21.188 47.327 47.327S76.14 94.654 50 94.654c-26.14 0-47.328-21.188-47.328-47.327S23.862 0 50 0zm0 34.777c-6.92 0-12.55 5.63-12.55 12.55s5.63 12.55 12.55 12.55 12.55-5.63 12.55-12.55-5.63-12.55-12.55-12.55zm0-5.873c10.175 0 18.422 8.248 18.422 18.423S60.175 65.75 50 65.75c-10.176 0-18.423-8.248-18.423-18.423S39.825 28.904 50 28.904zm0-5.533c-13.21 0-23.955 10.747-23.955 23.956S36.79 71.28 50 71.28c13.208 0 23.955-10.745 23.955-23.953S63.21 23.37 50 23.37zm0-5.872c16.473 0 29.827 13.354 29.827 29.828C79.827 63.8 66.473 77.154 50 77.154c-16.475 0-29.828-13.354-29.828-29.828 0-16.473 13.353-29.828 29.828-29.828z"/></symbol><symbol viewBox="0 0 100 100" id="whatsapp"><path fill-rule="evenodd" clip-rule="evenodd" d="M50.513 0c-26.9 0-48.71 21.808-48.71 48.71 0 9.206 2.553 17.812 6.988 25.155L0 100l26.97-8.635c6.978 3.857 15.003 6.06 23.543 6.06 26.905 0 48.71-21.812 48.71-48.714C99.226 21.81 77.42 0 50.514 0zm0 89.262c-8.235 0-15.905-2.47-22.31-6.703L12.62 87.546l5.065-15.06c-4.854-6.687-7.722-14.9-7.722-23.776 0-22.36 18.19-40.552 40.55-40.552 22.36 0 40.55 18.192 40.55 40.553 0 22.36-18.19 40.552-40.55 40.552zm22.84-29.483c-1.222-.67-7.22-3.905-8.345-4.364-1.125-.457-1.945-.693-2.82.52-.877 1.21-3.365 3.922-4.12 4.727-.757.803-1.485.877-2.708.207-1.22-.668-5.177-2.133-9.766-6.545-3.572-3.434-5.915-7.6-6.595-8.87-.68-1.27-.006-1.92.64-2.515.58-.537 1.3-1.406 1.947-2.11.647-.702.876-1.212 1.32-2.026.445-.814.267-1.547-.02-2.182-.29-.633-2.546-6.844-3.49-9.372-.942-2.527-1.992-2.15-2.718-2.18-.728-.026-1.552-.163-2.382-.192-.828-.03-2.188.23-3.373 1.432-1.187 1.2-4.512 4.088-4.74 10.207-.23 6.117 4.004 12.195 4.595 13.047.59.855 8.083 14.115 20.536 19.57 12.455 5.45 12.52 3.79 14.805 3.668 2.288-.12 7.47-2.734 8.616-5.598s1.236-5.352.945-5.883c-.29-.53-1.108-.873-2.328-1.54z"/></symbol></svg>