<?xml version="1.0" standalone="no"?>
<!DOCTYPE svg PUBLIC "-//W3C//DTD SVG 1.1//EN" "http://www.w3.org/Graphics/SVG/1.1/DTD/svg11.dtd">
<svg width="100px" height="100px" version="1.1" xmlns="http://www.w3.org/2000/svg" xmlns:xlink="http://www.w3.org/1999/xlink" xml:space="preserve" style="fill-rule:evenodd;clip-rule:evenodd;stroke-linejoin:round;stroke-miterlimit:1.41421;">
    <g>
        <g>
            <path d="M8.65091,70.7C8.90242,70.3 9.30485,70.275 9.85818,70.625C22.4339,77.875 36.1164,81.5 50.9055,81.5C60.7648,81.5 70.4985,79.675 80.1064,76.025C80.3579,75.925 80.7226,75.775 81.2005,75.575C81.6783,75.375 82.0179,75.225 82.2191,75.125C82.9736,74.825 83.5647,74.975 83.9923,75.575C84.4198,76.175 84.2815,76.725 83.5773,77.225C82.6718,77.875 81.5148,78.625 80.1064,79.475C75.7803,82.025 70.9512,84 65.6191,85.4C60.287,86.8 55.0806,87.5 50,87.5C42.1527,87.5 34.733,86.1375 27.7409,83.4125C20.7488,80.6875 14.4861,76.85 8.95273,71.9C8.65091,71.65 8.5,71.4 8.5,71.15C8.5,71 8.5503,70.85 8.65091,70.7ZM31.3627,49.325C31.3627,45.875 32.2179,42.925 33.9282,40.475C35.6385,38.025 37.9776,36.175 40.9455,34.925C43.6618,33.775 47.007,32.95 50.9809,32.45C52.3391,32.3 54.5524,32.1 57.6209,31.85L57.6209,30.575C57.6209,27.375 57.2688,25.225 56.5645,24.125C55.5082,22.625 53.8482,21.875 51.5845,21.875L50.9809,21.875C49.3209,22.025 47.8873,22.55 46.68,23.45C45.4727,24.35 44.693,25.6 44.3409,27.2C44.1397,28.2 43.6367,28.775 42.8318,28.925L34.1545,27.875C33.2994,27.675 32.8718,27.225 32.8718,26.525C32.8718,26.375 32.897,26.2 32.9473,26C33.8024,21.55 35.9026,18.25 39.2477,16.1C42.5929,13.95 46.5039,12.75 50.9809,12.5L52.8673,12.5C58.6018,12.5 63.0788,13.975 66.2982,16.925C66.8012,17.425 67.2665,17.9625 67.6941,18.5375C68.1217,19.1125 68.4612,19.625 68.7127,20.075C68.9642,20.525 69.1906,21.175 69.3918,22.025C69.593,22.875 69.7439,23.4625 69.8445,23.7875C69.9452,24.1125 70.0206,24.8125 70.0709,25.8875C70.1212,26.9625 70.1464,27.6 70.1464,27.8L70.1464,45.95C70.1464,47.25 70.335,48.4375 70.7123,49.5125C71.0895,50.5875 71.4542,51.3625 71.8064,51.8375C72.1585,52.3125 72.737,53.075 73.5418,54.125C73.8436,54.575 73.9945,54.975 73.9945,55.325C73.9945,55.725 73.7933,56.075 73.3909,56.375C69.2158,59.975 66.9521,61.925 66.6,62.225C65.9964,62.675 65.267,62.725 64.4118,62.375C63.7076,61.775 63.0914,61.2 62.5632,60.65C62.035,60.1 61.6577,59.7 61.4314,59.45C61.205,59.2 60.8403,58.7125 60.3373,57.9875C59.8342,57.2625 59.4821,56.775 59.2809,56.525C56.4639,59.575 53.6973,61.475 50.9809,62.225C49.2706,62.725 47.1579,62.975 44.6427,62.975C40.7694,62.975 37.5877,61.7875 35.0977,59.4125C32.6077,57.0375 31.3627,53.675 31.3627,49.325ZM44.3409,47.825C44.3409,49.775 44.8314,51.3375 45.8123,52.5125C46.7932,53.6875 48.1136,54.275 49.7736,54.275C49.9245,54.275 50.1383,54.25 50.415,54.2C50.6917,54.15 50.8803,54.125 50.9809,54.125C53.0936,53.575 54.7285,52.225 55.8855,50.075C56.4388,49.125 56.8538,48.0875 57.1305,46.9625C57.4071,45.8375 57.558,44.925 57.5832,44.225C57.6083,43.525 57.6209,42.375 57.6209,40.775L57.6209,38.9C54.7033,38.9 52.49,39.1 50.9809,39.5C46.5542,40.75 44.3409,43.525 44.3409,47.825ZM76.0318,71.975C76.1324,71.775 76.2833,71.575 76.4845,71.375C77.7421,70.525 78.9494,69.95 80.1064,69.65C82.0179,69.15 83.8791,68.875 85.69,68.825C86.193,68.775 86.6709,68.8 87.1236,68.9C89.3873,69.1 90.7455,69.475 91.1982,70.025C91.3994,70.325 91.5,70.775 91.5,71.375L91.5,71.9C91.5,73.65 91.0221,75.7125 90.0664,78.0875C89.1106,80.4625 87.7776,82.375 86.0673,83.825C85.8158,84.025 85.5894,84.125 85.3882,84.125C85.2876,84.125 85.187,84.1 85.0864,84.05C84.7845,83.9 84.7091,83.625 84.86,83.225C86.7212,78.875 87.6518,75.85 87.6518,74.15C87.6518,73.6 87.5512,73.2 87.35,72.95C86.847,72.35 85.4385,72.05 83.1245,72.05C82.2694,72.05 81.2633,72.1 80.1064,72.2C78.8488,72.35 77.6918,72.5 76.6355,72.65C76.3336,72.65 76.1324,72.6 76.0318,72.5C75.9312,72.4 75.9061,72.3 75.9564,72.2C75.9564,72.15 75.9815,72.075 76.0318,71.975Z" style="fill:black;fill-rule:nonzero;"/>
        </g>
    </g>
</svg>
