<?xml version="1.0" standalone="no"?>
<!DOCTYPE svg PUBLIC "-//W3C//DTD SVG 1.1//EN" "http://www.w3.org/Graphics/SVG/1.1/DTD/svg11.dtd">
<svg width="216px" height="146px" version="1.1" xmlns="http://www.w3.org/2000/svg" xmlns:xlink="http://www.w3.org/1999/xlink" xml:space="preserve" style="fill-rule:evenodd;clip-rule:evenodd;stroke-linejoin:round;stroke-miterlimit:1.41421;">
    <g id="Capa_1">
        <g>
            <path d="M76.8214,73C76.8214,72.1429 77.25,71.1786 77.8928,70.5357L127.821,20.6071C128.464,19.9642 129.429,19.5357 130.286,19.5357C131.143,19.5357 132.107,19.9642 132.75,20.6071L138.107,25.9642C138.75,26.6071 139.179,27.5714 139.179,28.4285C139.179,29.2857 138.75,30.2499 138.107,30.8928L96,73L138.107,115.107C138.75,115.75 139.179,116.714 139.179,117.571C139.179,118.536 138.75,119.393 138.107,120.036L132.75,125.393C132.107,126.036 131.143,126.464 130.286,126.464C129.429,126.464 128.464,126.036 127.821,125.393L77.8928,75.4643C77.25,74.8214 76.8214,73.8571 76.8214,73Z" style="fill:black;fill-rule:nonzero;"/>
        </g>
    </g>
</svg>
