<?xml version="1.0" standalone="no"?>
<!DOCTYPE svg PUBLIC "-//W3C//DTD SVG 1.1//EN" "http://www.w3.org/Graphics/SVG/1.1/DTD/svg11.dtd">
<svg width="216px" height="146px" version="1.1" xmlns="http://www.w3.org/2000/svg" xmlns:xlink="http://www.w3.org/1999/xlink" xml:space="preserve" style="fill-rule:evenodd;clip-rule:evenodd;stroke-linejoin:round;stroke-miterlimit:1.41421;">
    <g id="Capa_1">
        <g>
            <path d="M139.179,73C139.179,72.1429 138.75,71.1786 138.107,70.5357L88.1785,20.6071C87.5357,19.9642 86.5714,19.5357 85.7143,19.5357C84.8571,19.5357 83.8928,19.9642 83.25,20.6071L77.8928,25.9642C77.25,26.6071 76.8214,27.5714 76.8214,28.4285C76.8214,29.2857 77.25,30.2499 77.8928,30.8928L120,73L77.8928,115.107C77.25,115.75 76.8214,116.714 76.8214,117.571C76.8214,118.536 77.25,119.393 77.8928,120.036L83.25,125.393C83.8928,126.036 84.8571,126.464 85.7143,126.464C86.5714,126.464 87.5357,126.036 88.1785,125.393L138.107,75.4643C138.75,74.8214 139.179,73.8571 139.179,73Z" style="fill:black;fill-rule:nonzero;"/>
        </g>
    </g>
</svg>
