<svg xmlns="http://www.w3.org/2000/svg" xmlns:xlink="http://www.w3.org/1999/xlink" version="1.1" id="Your_Icon" x="0px" y="0px" viewBox="0 0 100 100" enable-background="new 0 0 100 100" xml:space="preserve" height="100px" width="100px">
<g>
	<g>
		<g>
			<g>
			</g>
		</g>
		<g>
		</g>
	</g>
</g>
<g>
	<polygon fill="#000000" points="22.382,27.693 21.407,25.308 32.087,28.632 15.315,20.509 16.287,22.889 5.604,19.571  "/>
	<polygon fill="#000000" points="22.546,43.907 5.405,51.231 16.233,48.418 15.148,50.751 32.286,43.43 21.458,46.246  "/>
	<polygon fill="#000000" points="77.908,27.693 94.686,19.571 84.002,22.889 84.975,20.509 68.203,28.632 78.883,25.308  "/>
	<polygon fill="#000000" points="94.884,51.231 77.744,43.907 78.831,46.246 68.004,43.43 85.142,50.751 84.056,48.418  "/>
	<path fill="#000000" d="M57.124,45.159c2.129-1.919,3.495-4.668,3.495-7.753c0-5.778-4.699-10.476-10.476-10.476   c-5.777,0-10.476,4.698-10.476,10.476c0,3.085,1.367,5.836,3.497,7.753L33.03,80.429h6.063l2.059-7.231h17.985l2.059,7.231h6.062   L57.124,45.159z M50.144,31.622c3.196,0,5.785,2.586,5.785,5.784c0,3.195-2.589,5.784-5.785,5.784   c-3.194,0-5.785-2.589-5.785-5.784C44.359,34.208,46.95,31.622,50.144,31.622z M50.144,47.88c0.593,0,1.166-0.08,1.733-0.177   l2.676,9.398h-8.817l2.676-9.396C48.978,47.8,49.551,47.88,50.144,47.88z M42.368,68.928l2.152-7.556h11.248l2.152,7.556H42.368z"/>
</g>
</svg>