<?xml version="1.0" standalone="no"?>
<!DOCTYPE svg PUBLIC "-//W3C//DTD SVG 1.1//EN" "http://www.w3.org/Graphics/SVG/1.1/DTD/svg11.dtd">
<svg width="100px" height="100px" version="1.1" xmlns="http://www.w3.org/2000/svg" xmlns:xlink="http://www.w3.org/1999/xlink" xml:space="preserve" style="fill-rule:evenodd;clip-rule:evenodd;stroke-linejoin:round;stroke-miterlimit:1.41421;">
    <g>
        <g id="Ebene_1">
            <path d="M19.7535,71.6428L19.7535,19.5L90,19.5L90,71.6428ZM86.6156,22.8745L23.1382,22.8745L23.1382,68.2683L86.6156,68.2683ZM44.342,56.899C44.342,53.65 41.6638,51.0162 38.36,51.0162C35.0563,51.0162 32.3781,53.65 32.3781,56.899C32.3781,60.1479 35.0563,62.7818 38.36,62.7818C41.6638,62.7818 44.342,60.1479 44.342,56.899ZM77.3768,30.4781L62.5664,52.5644L53.9367,40.5077L49.2477,45.2619L36.0167,30.4781ZM80.0737,80.5L10,80.5L10,28.5991L15.1614,28.5991L15.1614,75.3521L80.0737,75.3521Z" style="fill:black;"/>
        </g>
    </g>
</svg>
