<?xml version="1.0" standalone="no"?>
<!DOCTYPE svg PUBLIC "-//W3C//DTD SVG 1.1//EN" "http://www.w3.org/Graphics/SVG/1.1/DTD/svg11.dtd">
<svg width="100px" height="100px" version="1.1" xmlns="http://www.w3.org/2000/svg" xmlns:xlink="http://www.w3.org/1999/xlink" xml:space="preserve" style="fill-rule:evenodd;clip-rule:evenodd;stroke-linejoin:round;stroke-miterlimit:1.41421;">
    <g>
        <g id="rund_25_">
            <path d="M63.6419,57.7271L74.3183,57.7271L74.3183,46.7242L63.6419,46.7242ZM44.4615,46.7229L55.1364,46.7229L55.1364,57.7258L44.4615,57.7258ZM25.2778,46.7229L35.954,46.7229L35.954,57.7258L25.2778,57.7258ZM63.6419,65.8309L74.3169,65.8309L74.3169,76.8337L63.6419,76.8337ZM44.4615,65.8309L55.1364,65.8309L55.1364,76.8337L44.4615,76.8337ZM25.2794,65.8309L35.9542,65.8309L35.9542,76.8337L25.2793,76.8337L25.2793,65.8309ZM21.4686,21.3268C21.4686,23.4158 23.1102,25.1102 25.1341,25.1102C27.1581,25.1102 28.8012,23.4158 28.8012,21.3268L28.8012,11.8159C28.8012,9.73307 27.1596,8.03853 25.1341,8.03853C23.1087,8.03853 21.4684,9.73307 21.4684,11.8159L21.4684,21.3268ZM71.008,11.8023C71.008,9.71323 72.6495,8.0218 74.6751,8.0218C76.7006,8.0218 78.3423,9.71323 78.3423,11.8023L78.3423,21.3117C78.3423,23.3993 76.7008,25.0891 74.6751,25.0891C72.6497,25.0891 71.008,23.3991 71.008,21.3117ZM17.0368,17.3196L17.0368,21.1938C17.0368,25.7935 20.669,29.5363 25.1343,29.5363C29.5996,29.5363 33.2335,25.7935 33.2335,21.1939L33.2335,17.3196L66.576,17.3196L66.576,21.1743C66.576,25.7771 70.2099,29.5197 74.6751,29.5197C79.1404,29.5197 82.7727,25.7771 82.7727,21.1743L82.7727,17.3198L91.5686,17.3198L91.5686,34.6698L8.43158,34.6698L8.43158,17.3198L17.0371,17.3198ZM12.3962,34.0875L12.3962,88.0117L87.6036,88.0117L87.6036,34.0875ZM8.43142,30.1241L91.5684,30.1241L91.5684,91.9782L8.43142,91.9782Z" style="fill:black;"/>
        </g>
    </g>
</svg>
