<?xml version="1.0" standalone="no"?>
<!DOCTYPE svg PUBLIC "-//W3C//DTD SVG 1.1//EN" "http://www.w3.org/Graphics/SVG/1.1/DTD/svg11.dtd">
<svg width="32px" height="32px" version="1.1" xmlns="http://www.w3.org/2000/svg" xmlns:xlink="http://www.w3.org/1999/xlink" xml:space="preserve" style="fill-rule:evenodd;clip-rule:evenodd;stroke-linejoin:round;stroke-miterlimit:1.41421;">
    <g id="Layer_1">
        <g id="camera">
            <g>
                <path d="M16.0216,9.99475C11.9507,9.99475 8.65184,13.2936 8.65184,17.3645C8.65184,21.4345 11.9507,24.7343 16.0216,24.7343C20.0916,24.7343 23.3914,21.4345 23.3914,17.3645C23.3914,13.2946 20.0916,9.99475 16.0216,9.99475ZM20.2178,20.9619C18.2316,23.2797 14.743,23.5478 12.4252,21.5607C10.1065,19.5745 9.8393,16.0849 11.8264,13.7681C13.8116,11.4494 17.3012,11.1822 19.619,13.1693C21.9359,15.1545 22.2039,18.645 20.2178,20.9619Z" style="fill:black;"/>
            </g>
            <g>
                <path d="M16.0216,13.6796C13.9866,13.6796 12.3377,15.3295 12.3367,17.3636L12.3367,17.3654C12.3367,17.6188 12.5431,17.826 12.7973,17.826C13.0516,17.826 13.258,17.6188 13.258,17.3654L13.258,17.3636C13.2589,15.8381 14.4952,14.6009 16.0216,14.6009C16.2759,14.6009 16.4822,14.3945 16.4822,14.1402C16.4822,13.886 16.2759,13.6796 16.0216,13.6796Z" style="fill:black;"/>
            </g>
            <g>
                <path d="M28.4507,9.1113L24.4582,8.44525L23.1933,5.28178C22.7705,4.22698 21.7627,3.54528 20.6277,3.54528L11.4155,3.54528C10.2806,3.54528 9.27275,4.22698 8.84899,5.2827L7.58507,8.44525L3.59342,9.1113C2.25396,9.33331 1.28207,10.4793 1.28207,11.8363L1.28207,25.6546C1.28207,27.1783 2.52204,28.4182 4.04574,28.4182L27.9975,28.4182C29.5212,28.4182 30.7612,27.1783 30.7612,25.6546L30.7612,11.8363C30.7612,10.4793 29.7893,9.33331 28.4507,9.1113ZM28.9187,25.6546C28.9187,26.164 28.5069,26.5758 27.9975,26.5758L4.04574,26.5758C3.5363,26.5758 3.12452,26.164 3.12452,25.6546L3.12452,11.8363C3.12452,11.3858 3.45063,11.0016 3.89466,10.9279L8.90979,10.0924L10.5597,5.96717C10.7006,5.61803 11.0387,5.38772 11.4155,5.38772L20.6277,5.38772C21.0036,5.38772 21.3417,5.6171 21.4826,5.96717L23.1325,10.0924L28.1486,10.9279C28.5926,11.0016 28.9187,11.3858 28.9187,11.8363Z" style="fill:black;"/>
            </g>
        </g>
    </g>
</svg>
