<?xml version="1.0" standalone="no"?>
<!DOCTYPE svg PUBLIC "-//W3C//DTD SVG 1.1//EN" "http://www.w3.org/Graphics/SVG/1.1/DTD/svg11.dtd">
<svg width="100px" height="100px" version="1.1" xmlns="http://www.w3.org/2000/svg" xmlns:xlink="http://www.w3.org/1999/xlink" xml:space="preserve" style="fill-rule:evenodd;clip-rule:evenodd;stroke-linejoin:round;stroke-miterlimit:1.41421;">
    <g id="Layer_1">
        <g id="rund_25_">
            <path d="M50.0007,94.2079C25.5852,94.2079 5.793,74.4157 5.793,50C5.793,25.5859 25.5852,5.79208 50.0007,5.79208C74.4148,5.79208 94.207,25.5843 94.207,50C94.207,74.4155 74.4148,94.2079 50.0007,94.2079ZM50.0007,10.6148C28.2842,10.6148 10.6155,28.2818 10.6155,50C10.6155,71.7165 28.2842,89.3852 50.0007,89.3852C71.7173,89.3852 89.3843,71.7165 89.3843,50C89.3843,28.282 71.7173,10.6148 50.0007,10.6148ZM43.601,73.9413L55.9713,73.9413L55.9713,44.5472L43.6012,44.5472L43.6012,73.9415ZM56.5933,31.6594C56.5933,27.8994 53.5452,24.8513 49.7853,24.8513C46.0254,24.8513 42.9773,27.8994 42.9773,31.6594C42.9773,35.4193 46.0254,38.4674 49.7853,38.4674C53.5452,38.4674 56.5933,35.4193 56.5933,31.6594Z" style="fill:black;fill-rule:nonzero;"/>
        </g>
    </g>
</svg>
