<?xml version="1.0" standalone="no"?>
<!DOCTYPE svg PUBLIC "-//W3C//DTD SVG 1.1//EN" "http://www.w3.org/Graphics/SVG/1.1/DTD/svg11.dtd">
<svg width="100px" height="100px" version="1.1" xmlns="http://www.w3.org/2000/svg" xmlns:xlink="http://www.w3.org/1999/xlink" xml:space="preserve" style="fill-rule:evenodd;clip-rule:evenodd;stroke-linejoin:round;stroke-miterlimit:1.41421;">
    <g>
        <g id="Layer1">
            <path d="M56.0487,88.7114C56.0487,92.0381 53.3268,94.7601 50,94.7601C46.6732,94.7601 43.9513,92.0381 43.9513,88.7114C43.9513,85.3846 46.6732,82.6628 50,82.6628C53.3268,82.6628 56.0487,85.3846 56.0487,88.7114ZM71.7751,76.6141C71.7751,77.8994 70.641,79.0336 69.3556,79.0336L30.6444,79.0336C29.359,79.0336 28.2249,77.8994 28.2249,76.6141L28.2249,23.3859C28.2249,22.1007 29.359,20.9665 30.6444,20.9665L69.3556,20.9665C70.641,20.9665 71.7751,22.1007 71.7751,23.3859ZM57.2583,12.4984C57.2583,13.1788 56.7291,13.7082 56.0487,13.7082L43.9513,13.7082C43.2709,13.7082 42.7417,13.1788 42.7417,12.4984C42.7417,11.818 43.2709,11.2886 43.9513,11.2886L56.0487,11.2886C56.7291,11.2886 57.2583,11.818 57.2583,12.4984ZM79.0335,11.2886C79.0335,5.99608 74.6483,1.6108 69.3556,1.6108L30.6444,1.6108C25.3517,1.6108 20.9665,5.99608 20.9665,11.2886L20.9665,88.7114C20.9665,94.0039 25.3517,98.3892 30.6444,98.3892L69.3556,98.3892C74.6483,98.3892 79.0335,94.0039 79.0335,88.7114Z" style="fill:black;fill-rule:nonzero;"/>
        </g>
    </g>
</svg>
