<?xml version="1.0" encoding="utf-8"?>
<!-- Generator: Adobe Illustrator 15.1.0, SVG Export Plug-In . SVG Version: 6.00 Build 0)  -->
<!DOCTYPE svg PUBLIC "-//W3C//DTD SVG 1.1//EN" "http://www.w3.org/Graphics/SVG/1.1/DTD/svg11.dtd">
<svg version="1.1" id="Ebene_1" xmlns="http://www.w3.org/2000/svg" xmlns:xlink="http://www.w3.org/1999/xlink" x="0px" y="0px"
	 width="100px" height="43px" viewBox="0 27.5 100 43" enable-background="new 0 27.5 100 43" xml:space="preserve">
<path d="M91.258,51.793v-0.021c-0.434,4.336-2.443,8.474-5.693,11.508c-3.371,3.133-7.742,4.867-12.354,4.867
	c-8.177,0-15.229-5.398-17.438-13.201C54.395,56.324,52.128,57.25,50,57.25s-4.393-0.926-5.772-2.305
	c-2.207,7.803-9.261,13.201-17.437,13.201c-4.591,0-8.984-1.715-12.354-4.849c-3.251-3.054-5.261-7.19-5.694-11.526H5.866v-3.546
	h2.876c0.434-4.334,2.443-8.473,5.694-11.506c3.369-3.133,7.744-4.866,12.354-4.866c10.01,0,18.146,8.118,18.146,18.126
	c0,0.021,0,0.021,0,0.021c0,1.95,2.266,4.256,5.064,4.256c2.799,0,5.064-2.306,5.064-4.256c0,0,0,0,0-0.021
	c0-10.008,8.137-18.126,18.146-18.126c4.591,0,8.983,1.714,12.354,4.866c3.25,3.033,5.261,7.19,5.693,11.526h2.874v3.547
	L91.258,51.793L91.258,51.793z M26.791,36.76c-7.307,0-13.24,5.949-13.24,13.24c0,7.307,5.949,13.24,13.24,13.24
	c7.307,0,13.24-5.949,13.24-13.24C40.031,42.692,34.098,36.76,26.791,36.76L26.791,36.76z M73.21,36.76
	c-7.308,0-13.239,5.949-13.239,13.24c0,7.307,5.948,13.24,13.239,13.24c7.308,0,13.239-5.949,13.239-13.24
	C86.449,42.692,80.52,36.76,73.21,36.76L73.21,36.76z"/>
</svg>
