<?xml version="1.0" encoding="utf-8"?>
<!-- Generator: Adobe Illustrator 16.0.4, SVG Export Plug-In . SVG Version: 6.00 Build 0)  -->
<!DOCTYPE svg PUBLIC "-//W3C//DTD SVG 1.1//EN" "http://www.w3.org/Graphics/SVG/1.1/DTD/svg11.dtd">
<svg version="1.1" id="Ebene_1" xmlns="http://www.w3.org/2000/svg" xmlns:xlink="http://www.w3.org/1999/xlink" x="0px" y="0px"
	 width="100px" height="100px" viewBox="0.5 100.5 100 100" enable-background="new 0.5 100.5 100 100" xml:space="preserve">
<path d="M47.721,116.513c3.399-6.864,11.44-9.58,20.495-9.958v-0.052h4.561v67.09c2.933-2.319,7.038-3.767,11.591-3.767
	c8.909,0,16.133,5.522,16.133,12.335s-7.224,12.336-16.134,12.336c-8.869,0-16.06-5.471-16.129-12.239h-0.023v-60.916
	c-14.157-0.203-23.362,8.184-23.362,8.184S45.404,121.19,47.721,116.513L47.721,116.513z M1.701,184.064l13.527-13.856
	c0.439-0.448,0.955-0.763,1.502-0.966c-2.238-3.231-3.557-7.142-3.557-11.36c0-11.036,8.979-20.016,20.014-20.016
	c11.037,0,20.018,8.979,20.018,20.016s-8.979,20.014-20.018,20.014c-4.135,0-7.984-1.262-11.178-3.42
	c-0.193,0.609-0.51,1.188-0.982,1.672L7.498,190.004c-1.6,1.641-4.195,1.641-5.797,0S0.1,185.705,1.701,184.064L1.701,184.064z
	 M33.186,173.335c8.521,0,15.455-6.935,15.455-15.455c0-8.522-6.934-15.455-15.455-15.455S17.73,149.357,17.73,157.88
	C17.732,166.401,24.664,173.334,33.186,173.335L33.186,173.335z"/>
</svg>
