<?xml version="1.0" standalone="no"?>
<!DOCTYPE svg PUBLIC "-//W3C//DTD SVG 1.1//EN" "http://www.w3.org/Graphics/SVG/1.1/DTD/svg11.dtd">
<svg width="80px" height="80px" version="1.1" xmlns="http://www.w3.org/2000/svg" xmlns:xlink="http://www.w3.org/1999/xlink" xml:space="preserve" style="fill-rule:evenodd;clip-rule:evenodd;stroke-linejoin:round;stroke-miterlimit:1.41421;">
    <g>
        <g id="Layer1">
            <g>
                <path d="M39.8302,55.4209L37.3769,55.4209L37.3769,51.2152L33.1712,51.2152L33.1712,48.7619L38.2531,43.68L44.9121,50.339L39.8302,55.4209ZM59.1063,23.8782C59.5006,24.2725 59.4568,24.9296 59.0625,25.3239L43.7293,40.6571C43.335,41.0514 42.6778,41.0952 42.2836,40.7009C41.8893,40.3067 41.9331,39.6495 42.3274,39.2552L57.6606,23.922C58.0549,23.5277 58.712,23.4839 59.1063,23.8782ZM62.6111,49.9009C62.6111,49.3314 62.2606,48.8495 61.7349,48.6304C61.2092,48.4114 60.6397,48.499 60.2016,48.9371L57.3978,51.7409C57.1349,52.0037 57.0035,52.3542 57.0035,52.7047L57.0035,58.2247C57.0035,62.0799 53.8492,65.2342 49.994,65.2342L13.5447,65.2342C9.68945,65.2342 6.53518,62.0799 6.53518,58.2247L6.53518,21.7753C6.53518,17.9201 9.68945,14.7658 13.5447,14.7658L49.994,14.7658C50.6511,14.7658 51.3083,14.8535 51.9654,15.0287C52.4473,15.2039 52.973,15.0725 53.3673,14.6782L55.514,12.5316C55.8644,12.1811 55.9959,11.743 55.9082,11.2611C55.8206,10.823 55.514,10.4287 55.1197,10.2535C53.4987,9.50873 51.7464,9.15826 49.994,9.15826L13.5447,9.15826C6.57899,9.15826 0.927588,14.8097 0.927588,21.7753L0.927588,58.2247C0.927588,65.1903 6.57899,70.8417 13.5447,70.8417L49.994,70.8417C56.9597,70.8417 62.6111,65.1903 62.6111,58.2247L62.6111,49.9009ZM58.4054,17.5696L28.9655,47.0095L28.9655,59.6266L41.5826,59.6266L71.0225,30.1867L58.4054,17.5696ZM77.8567,23.3525C79.4776,21.7315 79.4776,19.0153 77.8567,17.3944L71.1977,10.7354C69.5767,9.11445 66.8606,9.11445 65.2396,10.7354L61.2092,14.7658L73.8262,27.3829L77.8567,23.3525Z" style="fill:black;fill-rule:nonzero;"/>
            </g>
        </g>
    </g>
</svg>
