<?xml version="1.0" standalone="no"?>
<!DOCTYPE svg PUBLIC "-//W3C//DTD SVG 1.1//EN" "http://www.w3.org/Graphics/SVG/1.1/DTD/svg11.dtd">
<svg width="100px" height="100px" version="1.1" xmlns="http://www.w3.org/2000/svg" xmlns:xlink="http://www.w3.org/1999/xlink" xml:space="preserve" style="fill-rule:evenodd;clip-rule:evenodd;stroke-linejoin:round;stroke-miterlimit:1.41421;">
    <g id="Ebene_1">
        <g>
            <path d="M1.201,83.564L14.728,69.708C15.167,69.26 15.683,68.945 16.23,68.742C13.992,65.511 12.673,61.6 12.673,57.382C12.673,46.346 21.652,37.366 32.687,37.366C43.724,37.366 52.705,46.345 52.705,57.382C52.705,68.419 43.726,77.396 32.687,77.396C28.552,77.396 24.703,76.134 21.509,73.976C21.316,74.585 20.999,75.164 20.527,75.648L6.998,89.504C5.398,91.145 2.803,91.145 1.201,89.504C-0.401,87.863 -0.4,85.205 1.201,83.564ZM32.686,72.835C41.207,72.835 48.141,65.9 48.141,57.38C48.141,48.858 41.207,41.925 32.686,41.925C24.165,41.925 17.23,48.857 17.23,57.38C17.232,65.901 24.164,72.834 32.686,72.835Z" style="fill:black;fill-rule:nonzero;"/>
        </g>
        <g>
            <path d="M99.9916,25.1615C100.002,24.183 98.9628,23.7802 98.1813,23.6412L81.8329,21.0818L74.6554,6.16057C74.3686,5.53762 73.8219,4.81399 73.0717,4.80582C72.3215,4.79765 71.7591,5.50921 71.4588,6.12576L63.9581,20.8871L47.5579,23.09C46.741,23.2116 45.7256,23.592 45.7149,24.5705C45.7085,25.1577 46.1265,25.7168 46.5133,26.1451L58.2606,37.8212L55.2779,54.0998C55.2428,54.3278 55.208,54.5231 55.2055,54.7514C55.1963,55.5995 55.6118,56.387 56.5578,56.3973C57.0144,56.4022 57.4402,56.2438 57.8667,56.0201L72.5961,48.4816L87.1579,56.339C87.5468,56.5716 88.0017,56.7396 88.4584,56.7446C89.4043,56.7549 89.8042,55.9763 89.8135,55.1283C89.816,54.8999 89.8181,54.7042 89.788,54.4755L87.1604,38.1359L99.1265,26.7179C99.5552,26.2985 99.9852,25.7486 99.9916,25.1615Z" style="fill:black;fill-rule:nonzero;"/>
        </g>
        <g>
            <path d="M90.4945,74.4588C90.7034,73.8144 90.0996,73.3337 89.6119,73.0806L79.3368,68.0159L77.6728,56.6747C77.6118,56.2039 77.3999,55.6129 76.9058,55.4527C76.4117,55.2925 75.8933,55.6467 75.5676,55.9921L67.5651,64.1989L56.2731,62.2704C55.7082,62.1822 54.9587,62.2241 54.7497,62.8685C54.6244,63.2552 54.7852,63.7109 54.9524,64.0737L60.3059,74.2135L54.9758,84.355C54.9056,84.4985 54.8423,84.6204 54.7935,84.7707C54.6124,85.3293 54.7245,85.9354 55.3475,86.1373C55.6482,86.2349 55.9623,86.218 56.2903,86.1582L67.5792,84.2161L75.5804,92.4131C75.7895,92.647 76.0554,92.8519 76.3561,92.9495C76.9791,93.1514 77.404,92.7195 77.5851,92.161C77.6339,92.0106 77.6757,91.8817 77.7029,91.7244L79.3382,80.3848L89.6016,75.3088C89.9714,75.1201 90.3691,74.8455 90.4945,74.4588Z" style="fill:black;fill-rule:nonzero;"/>
        </g>
    </g>
</svg>
