<?xml version="1.0" standalone="no"?>
<!DOCTYPE svg PUBLIC "-//W3C//DTD SVG 1.1//EN" "http://www.w3.org/Graphics/SVG/1.1/DTD/svg11.dtd">
<svg   x="0px" y="0px" width="100px" height="100px" viewBox="0 0 100 100" enable-background="new 0 0 100 100"  version="1.1" xmlns="http://www.w3.org/2000/svg" xmlns:xlink="http://www.w3.org/1999/xlink" xml:space="preserve" style="fill-rule:evenodd;clip-rule:evenodd;stroke-linejoin:round;stroke-miterlimit:1.41421;">
    <g id="Ebene_1">
        <g>
            <path d="M16.044,99.9969C19.2311,95.1262 22.9809,91.2383 27.1899,88.4387L23.9381,83.5485C19.0645,86.7905 14.7548,91.2412 11.1302,96.7813ZM83.9068,99.9998L88.8177,96.7785C85.239,91.3235 80.9665,86.9196 76.1212,83.6916L72.8646,88.578C77.0492,91.3666 80.7648,95.2096 83.9068,100ZM50,5.87304C27.1422,5.87304 8.5452,24.4691 8.5452,47.3278C8.5452,70.1866 27.142,88.7817 50,88.7817C72.858,88.7817 91.4548,70.1856 91.4548,47.3278C91.4548,24.4701 72.8587,5.87304 50,5.87304ZM50,-4.26326e-14C76.1388,-7.10543e-14 97.3276,21.1888 97.3276,47.3276C97.3276,73.4665 76.1388,94.6553 50,94.6553C23.8612,94.6553 2.67236,73.4665 2.67236,47.3276C2.67236,21.1888 23.8622,-2.84217e-14 50,-4.26326e-14ZM50,34.7781C43.0797,34.7781 37.4504,40.4073 37.4504,47.3278C37.4504,54.2483 43.0807,59.8776 50.0002,59.8776C56.9207,59.8776 62.55,54.2483 62.55,47.3278C62.55,40.4073 56.9207,34.7781 50.0002,34.7781ZM50,28.905C60.175,28.905 68.4226,37.1527 68.4226,47.3276C68.4226,57.5026 60.175,65.7503 50,65.7503C39.825,65.7503 31.5774,57.5026 31.5774,47.3276C31.5774,37.1527 39.826,28.905 50,28.905ZM50,23.3716C36.7907,23.3716 26.045,34.1183 26.045,47.3267C26.045,60.535 36.7916,71.2827 50,71.2827C63.2084,71.2827 73.956,60.536 73.956,47.3276C73.956,34.1193 63.2093,23.3716 50,23.3716ZM50,17.4986C66.4738,17.4986 79.8281,30.8529 79.8281,47.3267C79.8281,63.8005 66.4738,77.1547 50,77.1547C33.5262,77.1547 20.1719,63.8005 20.1719,47.3267C20.1719,30.8529 33.5262,17.4986 50,17.4986Z" style="fill:black;fill-rule:nonzero;"/>
        </g>
    </g>
</svg>
