<?xml version="1.0" encoding="utf-8"?>
<!-- Generator: Adobe Illustrator 16.0.4, SVG Export Plug-In . SVG Version: 6.00 Build 0)  -->
<!DOCTYPE svg PUBLIC "-//W3C//DTD SVG 1.1//EN" "http://www.w3.org/Graphics/SVG/1.1/DTD/svg11.dtd">
<svg version="1.1" id="Ebene_1" xmlns="http://www.w3.org/2000/svg" xmlns:xlink="http://www.w3.org/1999/xlink" x="0px" y="0px"
	 width="100px" height="100px" viewBox="0 0 100 100" enable-background="new 0 0 100 100" xml:space="preserve">
<path d="M16.043,99.996c3.188-4.871,6.938-8.758,11.146-11.559l-3.252-4.889c-4.873,3.24-9.184,7.691-12.809,13.232L16.043,99.996z
	 M83.906,100l4.911-3.223c-3.579-5.455-7.852-9.857-12.696-13.086l-3.257,4.887C77.049,91.365,80.765,95.209,83.906,100L83.906,100z
	 M50,5.873c-22.858,0-41.455,18.596-41.455,41.454S27.142,88.781,50,88.781c22.857,0,41.454-18.596,41.454-41.454
	C91.454,24.47,72.858,5.873,50,5.873z M50,0c26.139,0,47.327,21.188,47.327,47.327S76.139,94.654,50,94.654
	c-26.14,0-47.328-21.188-47.328-47.327S23.861,0,50,0L50,0z M50,34.777c-6.921,0-12.551,5.629-12.551,12.55S43.08,59.877,50,59.877
	s12.55-5.629,12.55-12.55S56.92,34.777,50,34.777L50,34.777z M50,28.904c10.175,0,18.422,8.248,18.422,18.423S60.175,65.75,50,65.75
	c-10.176,0-18.423-8.248-18.423-18.423S39.825,28.904,50,28.904L50,28.904z M50,23.371c-13.21,0-23.955,10.746-23.955,23.955
	S36.791,71.281,50,71.281c13.208,0,23.955-10.746,23.955-23.954S63.209,23.371,50,23.371z M50,17.498
	c16.473,0,29.827,13.354,29.827,29.828c0,16.475-13.354,29.828-29.827,29.828c-16.475,0-29.828-13.354-29.828-29.828
	C20.172,30.853,33.525,17.498,50,17.498L50,17.498z"/>
</svg>
