<?xml version="1.0" encoding="utf-8"?>
<!-- Generator: Adobe Illustrator 16.0.4, SVG Export Plug-In . SVG Version: 6.00 Build 0)  -->
<!DOCTYPE svg PUBLIC "-//W3C//DTD SVG 1.1//EN" "http://www.w3.org/Graphics/SVG/1.1/DTD/svg11.dtd">
<svg version="1.1" id="Ebene_1" xmlns="http://www.w3.org/2000/svg" xmlns:xlink="http://www.w3.org/1999/xlink" x="0px" y="0px"
	 width="100px" height="100px" viewBox="0 0 100 100" enable-background="new 0 0 100 100" xml:space="preserve">
<g>
	<g>
		<path fill-rule="evenodd" clip-rule="evenodd" d="M50.513,0C23.612,0,1.802,21.808,1.802,48.711
			c0,9.205,2.554,17.811,6.989,25.154L0,100l26.969-8.635c6.979,3.857,15.004,6.059,23.544,6.059
			c26.905,0,48.711-21.811,48.711-48.713C99.225,21.808,77.418,0,50.513,0z M50.513,89.262c-8.235,0-15.905-2.469-22.31-6.703
			L12.62,87.547l5.065-15.059c-4.854-6.688-7.722-14.902-7.722-23.777c0-22.36,18.191-40.553,40.55-40.553
			c22.36,0,40.549,18.192,40.549,40.553C91.062,71.07,72.873,89.262,50.513,89.262z M73.352,59.779
			c-1.221-0.668-7.219-3.904-8.344-4.363c-1.125-0.457-1.945-0.693-2.82,0.52c-0.877,1.211-3.365,3.922-4.119,4.727
			c-0.758,0.803-1.486,0.877-2.709,0.207c-1.219-0.668-5.177-2.133-9.766-6.545c-3.572-3.434-5.915-7.6-6.595-8.869
			c-0.68-1.271-0.005-1.92,0.641-2.516c0.58-0.537,1.299-1.406,1.947-2.109c0.647-0.703,0.876-1.213,1.32-2.027
			c0.445-0.814,0.267-1.547-0.021-2.182c-0.289-0.633-2.545-6.844-3.488-9.372c-0.943-2.527-1.993-2.151-2.719-2.179
			c-0.727-0.027-1.551-0.164-2.381-0.193c-0.828-0.031-2.188,0.229-3.373,1.432c-1.187,1.201-4.512,4.088-4.74,10.207
			c-0.229,6.117,4.004,12.195,4.595,13.047c0.591,0.855,8.083,14.115,20.536,19.57c12.455,5.451,12.52,3.789,14.805,3.668
			c2.287-0.121,7.469-2.734,8.615-5.598s1.236-5.352,0.945-5.883C75.389,60.791,74.572,60.447,73.352,59.779z"/>
	</g>
</g>
</svg>
